# xmcd
#
# Track frame offsets:
#	150
#	16182
#	29642
#	43562
#	56119
#
# Disc length: 917 seconds
#
# Revision: 0
# Processed by: cddbd v1.4PL0 Copyright (c) Steve Scherf et al.
# Submitted via: EasyCDDAExtractor 5.0.4.1
#
DISCID=3b039305
DTITLE=Bas de Beer
DYEAR=1900
DGENRE=kinderen
TTITLE0=Bas de Beer
TTITLE1=De storm
TTITLE2=Het feest
TTITLE3=Professor Punthoofd
TTITLE4=De schat
EXTD=
EXTT0=
EXTT1=
EXTT2=
EXTT3=
EXTT4=
PLAYORDER=
